PathFileType	4	(X/Y/Z)	59_1_35_p1_0-219_filt_butterworth.trc
DataRate	CameraRate	NumFrames	NumMarkers	Units	OrigDataRate	OrigDataStartFrame	OrigNumFrames
41.0	41.0	5	27	m	41.0	0	219
Frame#	Time	RHip			RKnee			RAnkle			RBigToe			RSmallToe			RHeel			LHip			LKnee			LAnkle			LBigToe			LSmallToe			LHeel			Neck			Head			Nose			RShoulder			RElbow			RWrist			RThumb			RIndex			RPinky			LShoulder			LElbow			LWrist			LThumb			LIndex			LPinky			
		X1	Y1	Z1	X2	Y2	Z2	X3	Y3	Z3	X4	Y4	Z4	X5	Y5	Z5	X6	Y6	Z6	X7	Y7	Z7	X8	Y8	Z8	X9	Y9	Z9	X10	Y10	Z10	X11	Y11	Z11	X12	Y12	Z12	X13	Y13	Z13	X14	Y14	Z14	X15	Y15	Z15	X16	Y16	Z16	X17	Y17	Z17	X18	Y18	Z18	X19	Y19	Z19	X20	Y20	Z20	X21	Y21	Z21	X22	Y22	Z22	X23	Y23	Z23	X24	Y24	Z24	X25	Y25	Z25	X26	Y26	Z26	X27	Y27	Z27	
0	0.0	0.30863705188703633	0.4738290732860167	1.0816578049293395	0.295013983433121	0.6045093699528864	1.5136040361520502	0.2933537148293397	0.7156507150619218	1.8892034152122532	0.27816796361257373	0.5649082560990951	1.9404143914273548	0.3349904763738787	0.5947479844654046	1.9286769619473878	0.2820808187098911	0.8272547445628797	1.9559068236102024	0.09406528539771562	0.5466131239171643	1.0945953664064303	0.10359032636388761	0.6553307679607618	1.532359322206576	0.10124539447188365	0.7335020833444773	1.8920890278331952	0.11983970479066056	0.5595238669898813	1.931237293626439	0.06662632334229444	0.6057646322777969	1.9246792285508247	0.1204417776501143	0.7705279605443669	1.9337077105220186	0.23622774870523033	0.39760213480529294	0.489281645518118	0.23739870437973287	0.34156545844641123	0.23908122821190136	0.23865620884058275	0.31204461756395496	0.36890566683862425	0.39191929660520797	0.41940114006736723	0.6105371148655536	0.37901669759886325	0.32206844420708275	0.8499432097867359	0.2533097671771196	0.24216557462675192	1.0344321614900944	0.17749446946970862	0.21066665072045462	1.1234833430611775	0.18291906945357161	0.19883990759382883	1.1326926005253655	0.18363326499113972	0.19056482225136037	1.1242156254853413	0.07474334145022798	0.43999988255804906	0.5940078658738908	0.09577131308235956	0.33840222707449935	0.8551342592184361	0.16293197512685614	0.252210911505031	1.0451692912363213	0.23208907154465114	0.23018379562418384	1.1432474205343763	0.21156724398264187	0.21824677466966153	1.1520977653983993	0.20701913795150548	0.23115846334372858	1.157424355170262
1	0.024390243902439	0.30682499065458657	0.48028539762053973	1.0790133664891302	0.29526389388476654	0.60378538438051	1.51174769473221	0.2906078025757227	0.7374595914645816	1.890066946724383	0.28106779055290054	0.5753512345925764	1.944903221216772	0.33827520844242975	0.5979687375919961	1.9260104057091953	0.2821082466599919	0.8274623040833864	1.956174509846289	0.09390929130457186	0.5462027328591897	1.0950212405224313	0.10391947808035928	0.6541822740457955	1.5349565800553582	0.10250656437904772	0.7310864486114083	1.8907676910110087	0.11964874492668445	0.5607612666672348	1.928059740432684	0.06666085435166731	0.6057445224769704	1.9245823380660556	0.11848426392733107	0.7785641438235951	1.936916035216728	0.23622527941909968	0.3976733212505223	0.48929634231192765	0.2389475870113885	0.3468561631708449	0.2384064979080867	0.23768597740409603	0.3089542610639673	0.3690703877096443	0.3887656349610535	0.40863767425966735	0.6080006220108158	0.37909851676322237	0.32943392379120595	0.8504909556530704	0.25180753695069413	0.2452033543090421	1.0345658402587548	0.1720294088137973	0.22362210257995002	1.1234720097108613	0.17615350306091318	0.2219613768123187	1.138042124442571	0.18635707434714371	0.19518133263893173	1.131676098710442	0.07379089358120594	0.43632486207179283	0.5941078504537168	0.09544067030419175	0.3382620520788788	0.8534990593730339	0.1659667155030109	0.25226786542423085	1.0471873374813419	0.21690474700329468	0.22262107256243246	1.1344068618623337	0.21003951097860227	0.2140740641997959	1.153797211789807	0.20099436751035735	0.2336922970151092	1.1588999266490163
2	0.048780487804878	0.30471534120030774	0.4914156123157187	1.080097582273059	0.295350173421641	0.6035452713070986	1.5110506927156448	0.29124320490247013	0.7502059569523161	1.8909969281907455	0.2821859129678486	0.5793799135522482	1.9466116210145261	0.3395111019816279	0.5986813341403874	1.9256127267411687	0.2821671863542866	0.8275790458842711	1.9563382272967065	0.09367551050426991	0.5454431550833319	1.0956550877407503	0.10397392919318033	0.6541127103081242	1.535393658888111	0.10301242230566468	0.7300413434471384	1.8904076338557747	0.11961661019213135	0.560542964333531	1.9298058378884293	0.06666921480912062	0.6059256131400109	1.924606992372488	0.11680985803248842	0.7768638233027765	1.9360728095600264	0.23622246263084973	0.39771268152460804	0.489276294693669	0.23853658076344017	0.3454905933648902	0.23855988440271286	0.23634993049328198	0.3042917131872638	0.3694222202490984	0.386426437021794	0.4080249079150312	0.6069069629479504	0.3795391661384829	0.3402327530101318	0.8515311092272179	0.2515625253001129	0.2466964854628905	1.0333538509583824	0.16855626405670232	0.22828486825806638	1.1240118705900803	0.17382444912586445	0.2306254345687616	1.1408030433835146	0.18638959156808427	0.1970274645460462	1.1343730984439184	0.07240539654257015	0.43075903373222296	0.5940673895325708	0.09543805816238093	0.33770885352128077	0.8528782615044337	0.16631731037379727	0.252528593567083	1.0473862219150345	0.21079523569815148	0.21859328966076091	1.1303425387560013	0.2097325622422875	0.20900644174394994	1.1536130244038192	0.19761441752385883	0.24081871315268688	1.1611512555435535
3	0.073170731707317	0.30338234472840714	0.4995947845025516	1.0839533829913746	0.2955678261006443	0.6034098674759412	1.5100262242004023	0.2932577600496694	0.7522857654442877	1.8915166135412593	0.2820268242686075	0.5787898528081495	1.946370487323364	0.3391940418036794	0.5985625136512457	1.9282293284190786	0.28222652413823746	0.8276288945018783	1.956423276098991	0.09366363332597147	0.5451420298873155	1.0960616964844165	0.10380533849426149	0.6545976577134771	1.5346983162805818	0.10293238771596548	0.7301510828124461	1.8903789931641797	0.11954327186927202	0.5605873572486683	1.931989288635903	0.06665139473735147	0.606163266053914	1.9246838996116853	0.11419551664557197	0.7721575242588368	1.9338848479774216	0.23621839460481314	0.3977335367430199	0.48921957566024343	0.23745884232436282	0.3418062903599835	0.23899322879647755	0.23551411516464604	0.30116073631110757	0.3696916778654794	0.3851122923613072	0.41553748331065044	0.6071645741035641	0.3794803477143321	0.34708230916764893	0.8522467557714523	0.24987533520640537	0.24692445028972274	1.031675804901883	0.1677004442200322	0.22648144236569068	1.1240036899539874	0.17374151466868124	0.22823585652189424	1.1404247947737414	0.1867804930418957	0.19643458303702246	1.1342666135035346	0.07153698189079899	0.42678659075672154	0.5941579367030416	0.09542520518626774	0.33820096296231006	0.854829140806658	0.16420829373167892	0.25238790954235	1.0465367628101865	0.21166695527407695	0.21959332635453735	1.1290489164628585	0.21217872962732381	0.20588803482649842	1.1525913688466032	0.19592951410691453	0.2412416495943054	1.1617780898676808
4	0.0975609756097561	0.3039150068916612	0.5007601661475671	1.0862228637762894	0.29588975262333683	0.6031899346501943	1.5086637214611427	0.293750074784226	0.7502980417502974	1.8922870602964816	0.28182502769895745	0.5779253134425745	1.946078120451312	0.33914264741608235	0.6015564632324297	1.9309674302526014	0.2822625835055363	0.8277570677225157	1.9565049204107674	0.09459464136459264	0.5463709785415909	1.095990445464572	0.10361582840981487	0.6548379507212191	1.5341533723797585	0.10271795063021956	0.7308090352458044	1.889428992212339	0.1195618284870453	0.5645220193872911	1.9300524043497402	0.06665664713057037	0.6061565317515932	1.924664145847777	0.1121253780741055	0.7710365877332881	1.9337703994146211	0.23620773701571074	0.3977483520466515	0.48916563947163505	0.23710577110353537	0.3405470027900842	0.23912826797758913	0.2355295437123056	0.3009908582352318	0.3697141855076822	0.3856140647033045	0.42419970337624063	0.6083977518384387	0.37728970961781044	0.3482248493787415	0.8522083641208203	0.245065900159816	0.2484879096459479	1.0314833628543183	0.1678868493876869	0.22337624354002927	1.1220395150227733	0.17296908113675788	0.2242611042967112	1.1384842114491618	0.18948461512159	0.19537590911651004	1.1350625893353614	0.0715709754481826	0.426189735208791	0.5951661381728774	0.09430551527333543	0.34199233849337846	0.8580905131659395	0.16081790786478528	0.25125085725562013	1.0460274389750537	0.21415815664623164	0.22013012959800388	1.1270482864925047	0.2150277195974249	0.20569817939254068	1.1522826768868208	0.19282796383647668	0.2358429407356451	1.1609696913759273
